<svg version="1.1" xmlns="http://www.w3.org/2000/svg" viewBox="0 0 80.60327966959585 87.03541435506258"
     width="80.60327966959585" height="87.03541435506258"><!-- svg-source:excalidraw -->
    <g stroke-linecap="round">
        <g transform="translate(10.301639834798152 62.775948668734145) rotate(0 29.730032667767773 0)">
            <path d="M0 0 C9.91 0, 49.55 0, 59.46 0 M0 0 C9.91 0, 49.55 0, 59.46 0" stroke="#6c5750" stroke-width="4"
                  fill="none"></path>
        </g>
    </g>
    <g stroke-linecap="round" transform="translate(30.301639834798152 57.035414355062585) rotate(0 10 10)">
        <path d="M20 10 C20 10.58, 19.95 11.17, 19.85 11.74 C19.75 12.31, 19.59 12.88, 19.4 13.42 C19.2 13.96, 18.95 14.5, 18.66 15 C18.37 15.5, 18.03 15.98, 17.66 16.43 C17.29 16.87, 16.87 17.29, 16.43 17.66 C15.98 18.03, 15.5 18.37, 15 18.66 C14.5 18.95, 13.96 19.2, 13.42 19.4 C12.88 19.59, 12.31 19.75, 11.74 19.85 C11.17 19.95, 10.58 20, 10 20 C9.42 20, 8.83 19.95, 8.26 19.85 C7.69 19.75, 7.12 19.59, 6.58 19.4 C6.04 19.2, 5.5 18.95, 5 18.66 C4.5 18.37, 4.02 18.03, 3.57 17.66 C3.13 17.29, 2.71 16.87, 2.34 16.43 C1.97 15.98, 1.63 15.5, 1.34 15 C1.05 14.5, 0.8 13.96, 0.6 13.42 C0.41 12.88, 0.25 12.31, 0.15 11.74 C0.05 11.17, 0 10.58, 0 10 C0 9.42, 0.05 8.83, 0.15 8.26 C0.25 7.69, 0.41 7.12, 0.6 6.58 C0.8 6.04, 1.05 5.5, 1.34 5 C1.63 4.5, 1.97 4.02, 2.34 3.57 C2.71 3.13, 3.13 2.71, 3.57 2.34 C4.02 1.97, 4.5 1.63, 5 1.34 C5.5 1.05, 6.04 0.8, 6.58 0.6 C7.12 0.41, 7.69 0.25, 8.26 0.15 C8.83 0.05, 9.42 0, 10 0 C10.58 0, 11.17 0.05, 11.74 0.15 C12.31 0.25, 12.88 0.41, 13.42 0.6 C13.96 0.8, 14.5 1.05, 15 1.34 C15.5 1.63, 15.98 1.97, 16.43 2.34 C16.87 2.71, 17.29 3.13, 17.66 3.57 C18.03 4.02, 18.37 4.5, 18.66 5 C18.95 5.5, 19.2 6.04, 19.4 6.58 C19.59 7.12, 19.75 7.69, 19.85 8.26 C19.95 8.83, 19.97 9.71, 20 10 C20.03 10.29, 20.03 9.71, 20 10"
              stroke="#6c5750" stroke-width="4" fill="none"></path>
    </g>
    <g stroke-linecap="round">
        <g transform="translate(10 62.556702284764015) rotate(0 30.301639834797925 -23.514743551845186)">
            <path d="M0 0 C2.48 -7.74, 7.34 -38.59, 14.87 -46.43 C22.41 -54.26, 37.6 -54.72, 45.22 -47.03 C52.84 -39.34, 58.04 -8.09, 60.6 -0.3 M0 0 C2.48 -7.74, 7.34 -38.59, 14.87 -46.43 C22.41 -54.26, 37.6 -54.72, 45.22 -47.03 C52.84 -39.34, 58.04 -8.09, 60.6 -0.3"
                  stroke="#6c5750" stroke-width="4" fill="none"></path>
        </g>
    </g>
</svg>