<svg version="1.1" xmlns="http://www.w3.org/2000/svg" viewBox="0 0 75.89514034094873 92.23176212404633"
     width="75.89514034094873" height="92.23176212404633"><!-- svg-source:excalidraw -->
    <g stroke-linecap="round">
        <g transform="translate(17.659093898067113 81.35014294557232) rotate(0 19.44260578207377 -22.308184212653714)">
            <path d="M-1.19 0.48 C-0.18 -7.38, -0.65 -38.98, 5.6 -46.39 C11.85 -53.8, 30.64 -51.63, 36.32 -43.97 C42.01 -36.31, 39.18 -7.96, 39.72 -0.44 M0.39 -0.32 C1.31 -8.14, -1.05 -37.86, 4.85 -45.47 C10.75 -53.08, 29.87 -53.57, 35.8 -45.97 C41.72 -38.38, 39.96 -7.86, 40.4 0.12"
                  stroke="#6c5750" stroke-width="4" fill="none"></path>
        </g>
    </g>
    <g stroke-linecap="round">
        <g transform="translate(17.992164319867243 81.85572446045717) rotate(0 19.154129509666518 0)">
            <path d="M0.17 -0.54 C6.68 -0.52, 32.1 0.29, 38.52 0.3 M-0.4 0.38 C6.1 0.21, 31.7 -0.43, 38.19 -0.52"
                  stroke="#6c5750" stroke-width="4" fill="none"></path>
        </g>
    </g>
    <g stroke-linecap="round" transform="translate(28.00661918453443 10) rotate(0 10 10)">
        <path d="M11.97 -0.24 C14.08 -0.13, 16.31 1.42, 17.71 3.11 C19.1 4.79, 20.31 7.71, 20.34 9.88 C20.37 12.05, 19.28 14.41, 17.88 16.13 C16.49 17.85, 14.03 19.76, 11.96 20.18 C9.89 20.59, 7.3 19.79, 5.48 18.63 C3.65 17.47, 1.84 15.14, 1.01 13.21 C0.18 11.29, -0.16 8.99, 0.48 7.06 C1.13 5.14, 2.96 2.83, 4.88 1.67 C6.8 0.51, 10.75 0.32, 12 0.1 C13.24 -0.12, 12.37 0.22, 12.35 0.35 M8.15 0.84 C10.09 0.27, 13.03 0.3, 14.8 1.16 C16.58 2.02, 18.01 3.85, 18.8 6.01 C19.59 8.17, 20.15 12.12, 19.56 14.12 C18.96 16.11, 17.27 17.15, 15.25 17.98 C13.24 18.82, 9.58 19.33, 7.46 19.13 C5.34 18.93, 3.82 18.33, 2.54 16.77 C1.25 15.22, -0.3 12.09, -0.25 9.8 C-0.19 7.5, 1.54 4.65, 2.87 3.02 C4.21 1.4, 6.99 0.51, 7.78 0.06 C8.58 -0.38, 7.63 0.14, 7.67 0.36"
              stroke="#6c5750" stroke-width="4" fill="none"></path>
    </g>
    <g stroke-linecap="round"
       transform="translate(52.53121670650262 44.17707223550087) rotate(0 6.681961817223055 6.681961817223055)">
        <path d="M7.66 -0.39 C9.04 -0.24, 11 1.01, 11.99 2.1 C12.98 3.19, 13.55 4.65, 13.58 6.16 C13.61 7.66, 13 9.95, 12.16 11.12 C11.32 12.3, 9.91 12.98, 8.54 13.19 C7.17 13.39, 5.31 12.96, 3.95 12.37 C2.59 11.78, 0.99 10.9, 0.37 9.66 C-0.25 8.42, -0.2 6.42, 0.21 4.95 C0.62 3.48, 1.65 1.7, 2.83 0.85 C4.01 0, 6.49 -0.01, 7.29 -0.18 C8.1 -0.34, 7.67 -0.29, 7.68 -0.13 M7.36 -0.15 C8.65 -0.26, 10.01 0.38, 11.04 1.58 C12.07 2.79, 13.34 5.67, 13.54 7.09 C13.75 8.51, 13.29 9.19, 12.26 10.09 C11.22 11, 8.74 12.04, 7.33 12.52 C5.92 13, 4.96 13.56, 3.78 12.98 C2.6 12.4, 0.73 10.52, 0.23 9.04 C-0.26 7.56, 0.42 5.46, 0.82 4.11 C1.21 2.76, 1.58 1.6, 2.6 0.93 C3.62 0.26, 6.17 0.17, 6.92 0.09 C7.67 0.02, 6.97 0.51, 7.1 0.49"
              stroke="#6c5750" stroke-width="4" fill="none"></path>
    </g>
    <g stroke-linecap="round"
       transform="translate(10 43.967203304042414) rotate(0 6.681961817223055 6.681961817223055)">
        <path d="M5.74 0.02 C7.09 -0.3, 8.9 -0.22, 10.13 0.54 C11.36 1.31, 12.57 3.23, 13.13 4.61 C13.69 5.99, 13.9 7.56, 13.47 8.82 C13.04 10.08, 11.86 11.37, 10.53 12.19 C9.21 13.01, 7.03 13.89, 5.53 13.76 C4.03 13.62, 2.5 12.59, 1.53 11.4 C0.56 10.21, -0.22 8.17, -0.31 6.64 C-0.39 5.11, 0.04 3.38, 1.03 2.22 C2.01 1.06, 4.8 0.03, 5.6 -0.32 C6.41 -0.66, 5.78 0, 5.88 0.15 M7.61 -0.45 C9.03 -0.08, 11.22 2.19, 12.23 3.33 C13.24 4.47, 13.91 5.16, 13.67 6.37 C13.43 7.57, 11.8 9.35, 10.81 10.57 C9.81 11.8, 9.03 13.46, 7.69 13.72 C6.35 13.98, 3.91 13.06, 2.75 12.13 C1.6 11.19, 1.22 9.46, 0.77 8.1 C0.31 6.73, -0.37 5.18, 0 3.95 C0.37 2.72, 1.7 1.31, 2.99 0.73 C4.28 0.15, 6.83 0.67, 7.72 0.47 C8.61 0.28, 8.17 -0.46, 8.33 -0.44"
              stroke="#6c5750" stroke-width="4" fill="none"></path>
    </g>
</svg>