<svg version="1.1" xmlns="http://www.w3.org/2000/svg" viewBox="0 0 85.05212826341358 87.68288859752784"
     width="85.05212826341358" height="87.68288859752784"><!-- svg-source:excalidraw -->
    <g stroke-linecap="round" transform="translate(10 10) rotate(0 22.061681162755576 22.061681162755576)">
        <path d="M44.12 22.06 C44.12 23.34, 44.01 24.64, 43.79 25.89 C43.57 27.15, 43.23 28.41, 42.79 29.61 C42.36 30.81, 41.81 31.99, 41.17 33.09 C40.53 34.2, 39.78 35.26, 38.96 36.24 C38.14 37.22, 37.22 38.14, 36.24 38.96 C35.26 39.78, 34.2 40.53, 33.09 41.17 C31.99 41.81, 30.81 42.36, 29.61 42.79 C28.41 43.23, 27.15 43.57, 25.89 43.79 C24.64 44.01, 23.34 44.12, 22.06 44.12 C20.78 44.12, 19.49 44.01, 18.23 43.79 C16.97 43.57, 15.72 43.23, 14.52 42.79 C13.32 42.36, 12.14 41.81, 11.03 41.17 C9.92 40.53, 8.86 39.78, 7.88 38.96 C6.9 38.14, 5.98 37.22, 5.16 36.24 C4.34 35.26, 3.59 34.2, 2.96 33.09 C2.32 31.99, 1.77 30.81, 1.33 29.61 C0.89 28.41, 0.56 27.15, 0.34 25.89 C0.11 24.64, 0 23.34, 0 22.06 C0 20.78, 0.11 19.49, 0.34 18.23 C0.56 16.97, 0.89 15.72, 1.33 14.52 C1.77 13.32, 2.32 12.14, 2.96 11.03 C3.59 9.92, 4.34 8.86, 5.16 7.88 C5.98 6.9, 6.9 5.98, 7.88 5.16 C8.86 4.34, 9.92 3.59, 11.03 2.96 C12.14 2.32, 13.32 1.77, 14.52 1.33 C15.72 0.89, 16.97 0.56, 18.23 0.34 C19.49 0.11, 20.78 0, 22.06 0 C23.34 0, 24.64 0.11, 25.89 0.34 C27.15 0.56, 28.41 0.89, 29.61 1.33 C30.81 1.77, 31.99 2.32, 33.09 2.96 C34.2 3.59, 35.26 4.34, 36.24 5.16 C37.22 5.98, 38.14 6.9, 38.96 7.88 C39.78 8.86, 40.53 9.92, 41.17 11.03 C41.81 12.14, 42.36 13.32, 42.79 14.52 C43.23 15.72, 43.57 16.97, 43.79 18.23 C44.01 19.49, 44.07 21.42, 44.12 22.06 C44.18 22.7, 44.18 21.42, 44.12 22.06"
              stroke="#6c5750" stroke-width="4" fill="none"></path>
    </g>
    <g stroke-linecap="round">
        <g transform="translate(46.63428970917448 49.26505004328874) rotate(0 14.208919277119548 14.208919277119548)">
            <path d="M0 0 C4.74 4.74, 23.68 23.68, 28.42 28.42 M0 0 C4.74 4.74, 23.68 23.68, 28.42 28.42"
                  stroke="#6c5750" stroke-width="4" fill="none"></path>
        </g>
    </g>
</svg>